<svg viewBox="0 0 32 32" fill="none" xmlns="http://www.w3.org/2000/svg">
  <defs>
    <linearGradient id="r2lGrad" x1="2" y1="2" x2="30" y2="30" gradientUnits="userSpaceOnUse">
      <stop offset="0" stop-color="#fbbf24"/>
      <stop offset="1" stop-color="#d97706"/>
    </linearGradient>
  </defs>
  <rect x="2" y="2" width="28" height="28" rx="8" fill="url(#r2lGrad)"/>
  <path d="M9 11.2C9 10.54 9.54 10 10.2 10h4.95c.77 0 1.5.3 2.05.85.55-.55 1.28-.85 2.05-.85h4.95c.66 0 1.2.54 1.2 1.2v8.7c0 .66-.54 1.2-1.2 1.2h-4.95c-.77 0-1.5.3-2.05.85-.55-.55-1.28-.85-2.05-.85H10.2c-.66 0-1.2-.54-1.2-1.2v-8.7Zm7.2 1.05c-.39-.27-.85-.41-1.32-.41H10.7v7.42h4.18c.47 0 .93.14 1.32.41v-7.42Zm1.6 0v7.42c.39-.27.85-.41 1.32-.41h4.18v-7.42h-4.18c-.47 0-.93.14-1.32.41Z" fill="#ffffff"/>
  <path d="M16 12.9v5.1" stroke="#ffffff" stroke-width="1.2" stroke-linecap="round"/>
  <path d="M16 14.4c.95 1.1 1.45 2.35 1.45 3.55" stroke="#ffffff" stroke-width="1.2" stroke-linecap="round" opacity=".9"/>
</svg>
